<?xml version="1.0" encoding="iso-8859-1"?>
<!-- Generator: Adobe Illustrator 19.0.0, SVG Export Plug-In . SVG Version: 6.00 Build 0)  -->
<svg version="1.1" id="Capa_1" xmlns="http://www.w3.org/2000/svg" xmlns:xlink="http://www.w3.org/1999/xlink" x="0px" y="0px"
	 viewBox="0 0 512 512" style="enable-background:new 0 0 512 512;" xml:space="preserve">
<linearGradient id="SVGID_1_" gradientUnits="userSpaceOnUse" x1="0" y1="257.999" x2="512" y2="257.999" gradientTransform="matrix(1 0 0 -1 0 513.999)">
	<stop  offset="0" style="stop-color:#80D8FF"/>
	<stop  offset="1" style="stop-color:#EA80FC"/>
</linearGradient>
<path style="fill:url(#SVGID_1_);" d="M492,162.999h-36v-10c0-33.084-26.916-60-60-60H116c-33.084,0-60,26.916-60,60v10H20
	c-11.046,0-20,8.954-20,20v130c0,33.084,26.916,60,60,60h8.39l-9.993,14.817c-6.176,9.158-3.759,21.589,5.399,27.765
	c9.192,6.198,21.611,3.724,27.764-5.399l25.075-37.183h278.729l25.075,37.183c6.166,9.144,18.594,11.583,27.765,5.399
	c9.157-6.176,11.575-18.606,5.399-27.765l-9.993-14.817H452c33.084,0,60-26.916,60-60v-130C512,171.953,503.046,162.999,492,162.999
	z M96,152.999c0-11.028,8.972-20,20-20h120v40c0,11.046,8.954,20,20,20c11.046,0,20-8.954,20-20v-40h120c11.028,0,20,8.972,20,20v10
	h-40c-11.046,0-20,8.954-20,20v56H156v-56c0-11.046-8.954-20-20-20H96V152.999z M472,312.999c0,11.028-8.972,20-20,20
	c-23.647,0-368.434,0-392,0c-11.028,0-20-8.972-20-20v-110h76v56c0,11.046,8.954,20,20,20h240c11.046,0,20-8.954,20-20v-56h76
	V312.999z"/>
<g>
</g>
<g>
</g>
<g>
</g>
<g>
</g>
<g>
</g>
<g>
</g>
<g>
</g>
<g>
</g>
<g>
</g>
<g>
</g>
<g>
</g>
<g>
</g>
<g>
</g>
<g>
</g>
<g>
</g>
</svg>
