<?xml version="1.0" encoding="iso-8859-1"?>
<!-- Generator: Adobe Illustrator 19.0.0, SVG Export Plug-In . SVG Version: 6.00 Build 0)  -->
<svg version="1.1" id="Capa_1" xmlns="http://www.w3.org/2000/svg" xmlns:xlink="http://www.w3.org/1999/xlink" x="0px" y="0px"
	 viewBox="0 0 512 512" style="enable-background:new 0 0 512 512;" xml:space="preserve">
<path style="fill:#E8596E;" d="M432,376H80V171c0-24.813,20.187-45,45-45h262c24.813,0,45,20.187,45,45V376z"/>
<g>
	<path style="fill:#DB2E44;" d="M387,126H256v250h176V171C432,146.187,411.813,126,387,126z"/>
	<path style="fill:#DB2E44;" d="M512,386H0V251c0-24.813,20.187-45,45-45h422c24.813,0,45,20.187,45,45V386z"/>
</g>
<path style="fill:#B0283F;" d="M467,206H256v180h256V251C512,226.187,491.813,206,467,206z"/>
<path style="fill:#E8596E;" d="M80,206H45c-24.813,0-45,20.187-45,45v135h80V206z"/>
<path style="fill:#DB2E44;" d="M467,206h-35v180h80V251C512,226.187,491.813,206,467,206z"/>
<g>
</g>
<g>
</g>
<g>
</g>
<g>
</g>
<g>
</g>
<g>
</g>
<g>
</g>
<g>
</g>
<g>
</g>
<g>
</g>
<g>
</g>
<g>
</g>
<g>
</g>
<g>
</g>
<g>
</g>
</svg>
