<svg height="512pt" viewBox="0 -22 512 511" width="512pt" xmlns="http://www.w3.org/2000/svg"><path d="m9.144531 37.070312c-5.046875.007813-9.1367185 4.097657-9.144531 9.144532v246.855468c.0078125 5.046876 4.097656 9.136719 9.144531 9.144532h45.710938c20.191406-.023438 36.550781-16.382813 36.574219-36.570313v-155.429687h-27.429688c-20.1875-.023438-36.546875-16.382813-36.570312-36.570313v-36.574219zm27.425781 237.714844c0 5.050782-4.09375 9.144532-9.140624 9.144532-5.050782 0-9.144532-4.09375-9.144532-9.144532v-9.140625c0-5.050781 4.09375-9.144531 9.144532-9.144531 5.046874 0 9.140624 4.09375 9.140624 9.144531zm0-128v82.285156c0 5.050782-4.09375 9.144532-9.140624 9.144532-5.050782 0-9.144532-4.09375-9.144532-9.144532v-82.285156c0-5.050781 4.09375-9.140625 9.144532-9.140625 5.046874 0 9.140624 4.089844 9.140624 9.140625zm0 0"/><path d="m109.714844 110.214844v155.429687c-.046875 26.738281-19.351563 49.558594-45.714844 54.03125v128.824219c.011719 10.09375 8.191406 18.277344 18.285156 18.285156h146.285156c10.097657-.007812 18.277344-8.191406 18.285157-18.285156v-343.375c-5.53125 3.296875-11.84375 5.050781-18.285157 5.089844zm0 0"/><path d="m466.285156 73.644531v-64c-.007812-5.046875-4.09375-9.136719-9.140625-9.144531h-182.859375c-5.046875.007812-9.136718 4.097656-9.140625 9.144531v64c.007813 10.09375 8.1875 18.273438 18.285157 18.285157h164.570312c10.09375-.011719 18.277344-8.191407 18.285156-18.285157zm0 0"/><path d="m502.855469 37.070312h-18.285157v36.574219c-.023437 20.1875-16.382812 36.546875-36.570312 36.570313h-27.429688v155.429687c.023438 20.1875 16.382813 36.546875 36.574219 36.570313h45.710938c5.046875-.007813 9.136719-4.097656 9.144531-9.144532v-246.855468c-.007812-5.046875-4.097656-9.136719-9.144531-9.144532zm0 0"/><path d="m45.714844 9.644531v64c.007812 10.09375 8.191406 18.273438 18.285156 18.285157h164.570312c10.097657-.011719 18.277344-8.191407 18.285157-18.285157v-64c-.003907-5.046875-4.09375-9.136719-9.140625-9.144531h-182.859375c-5.046875.007812-9.132813 4.097656-9.140625 9.144531zm0 0"/><path d="m283.429688 110.214844c-6.441407-.039063-12.753907-1.792969-18.285157-5.089844v160.519531c.007813 10.09375 8.1875 18.273438 18.285157 18.285157h122.054687c-2.101563-5.867188-3.1875-12.054688-3.199219-18.285157v-155.429687zm0 0"/></svg>