<svg height="512" viewBox="0 0 512 512" width="512" xmlns="http://www.w3.org/2000/svg"><g><g><g><g fill="#57a4ff"><circle cx="328" cy="248" r="16"/><path d="m440 176h-216v40h-4a19.994 19.994 0 0 1 -20-20v-20h-128a24.006 24.006 0 0 0 -24 24v128h200a16 16 0 0 1 -16-16v-16h16v-80a16 16 0 0 1 16-16h128a16 16 0 0 1 16 16v80h16v16a16 16 0 0 1 -16 16h56v-128a24.006 24.006 0 0 0 -24-24z"/><circle cx="328" cy="248" r="16"/><circle cx="328" cy="248" r="16"/></g><path d="m415 464h-80" fill="none"/><path d="m496 352a24 24 0 0 1 -24 24h-432a24 24 0 0 1 0-48h432a24.006 24.006 0 0 1 24 24z" fill="#57a4ff"/></g><circle cx="128" cy="104" fill="#57a4ff" r="8"/><path d="m176 96 16-8" fill="none"/><path d="m80 96-16-8" fill="none"/><circle cx="128" cy="104" fill="#57a4ff" r="8"/></g><g fill="#004fac"><path d="m328 224a24 24 0 1 0 24 24 24.027 24.027 0 0 0 -24-24zm0 32a8 8 0 1 1 8-8 8.009 8.009 0 0 1 -8 8z"/><path d="m496 456h-24v-72a32 32 0 0 0 0-64v-120a32.036 32.036 0 0 0 -32-32h-208.29a28.043 28.043 0 0 0 -27.71-24h-20v-24h8a8 8 0 0 0 0-16h-8v-3.06l11.58-5.78a8.005 8.005 0 1 0 -7.16-14.32l-4.42 2.22v-35.06a8.009 8.009 0 0 0 -12.44-6.66l-19.76 13.18c-15.66-8.64-31.94-8.64-47.6 0l-19.76-13.18a8.009 8.009 0 0 0 -12.44 6.66v35.06l-4.42-2.22a8.005 8.005 0 0 0 -7.16 14.32l11.58 5.78v3.06h-16a8 8 0 0 0 0 16h16v48a32.036 32.036 0 0 0 -32 32v120a32 32 0 0 0 0 64v72h-24a8 8 0 0 0 0 16h480a8 8 0 0 0 0-16zm-312-296h20a12.01 12.01 0 0 1 12 12v35.31a12.014 12.014 0 0 1 -8-11.31v-20a8 8 0 0 0 -8-8h-16zm-96-97.05 11.56 7.71a8.013 8.013 0 0 0 8.88 0c13.34-8.9 25.78-8.9 39.12 0a8.013 8.013 0 0 0 8.88 0l11.56-7.71v105.05h-8v-24a8 8 0 0 0 -16 0v24h-32v-24a8 8 0 0 0 -16 0v24h-8zm-32 137.05a16.021 16.021 0 0 1 16-16h120v12a28.031 28.031 0 0 0 28 28h4a8 8 0 0 0 8-8v-32h208a16.021 16.021 0 0 1 16 16v120h-25.38a23.841 23.841 0 0 0 1.38-8v-16a8 8 0 0 0 -8-8h-8v-72a24.032 24.032 0 0 0 -24-24h-128a24.032 24.032 0 0 0 -24 24v72h-8a8 8 0 0 0 -8 8v16a23.841 23.841 0 0 0 1.38 8h-169.38zm360 104v8a8.011 8.011 0 0 1 -8 8h-160a8.011 8.011 0 0 1 -8-8v-8zm-160-16v-72a8.011 8.011 0 0 1 8-8h128a8.011 8.011 0 0 1 8 8v72zm-191.31 168h-8.69v-72h15.24zm16.07 0 6.55-72h337.38l6.55 72zm375.24 0h-8.69l-6.55-72h15.24zm-416-88a16 16 0 1 1 0-32h432a16 16 0 1 1 0 32z"/><path d="m105 96h7a8 8 0 0 0 0-16h-7a8 8 0 0 0 0 16z"/><path d="m145 96h7a8 8 0 0 0 0-16h-7a8 8 0 0 0 0 16z"/><circle cx="128" cy="104" r="8"/></g></g></svg>