<svg height="512pt" viewBox="0 -21 512 512" width="512pt" xmlns="http://www.w3.org/2000/svg"><path d="m68.265625 51.199219v384c0 14.140625 11.460937 25.601562 25.601563 25.601562h136.53125c14.140624 0 25.601562-11.460937 25.601562-25.601562v-366.933594zm0 0" fill="#a4c2f7"/><path d="m401.066406 59.734375v230.398437h-119.464844c-6.792968.007813-13.3125-2.683593-18.113281-7.488281-4.804687-4.800781-7.496093-11.320312-7.488281-18.109375v-196.269531l119.464844-6.996094zm0 0" fill="#7facfa"/><path d="m375.464844 61.269531v228.863281h-93.863282c-6.792968.007813-13.3125-2.683593-18.113281-7.488281-4.804687-4.800781-7.496093-11.320312-7.488281-18.109375v-196.269531zm0 0" fill="#a4c2f7"/><path d="m110.933594 110.933594v153.601562c-.007813 23.558594-19.105469 42.65625-42.667969 42.664063h-42.664063c-9.414062-.027344-17.039062-7.652344-17.066406-17.066407v-230.398437c.027344-9.414063 7.652344-17.039063 17.066406-17.066406h25.597657" fill="#e8edfc"/><path d="m503.464844 59.734375v230.398437c-.027344 9.414063-7.652344 17.039063-17.066406 17.066407h-42.664063c-23.5625-.007813-42.660156-19.105469-42.667969-42.664063v-153.601562l59.734375-68.265625h25.597657c9.414062.027343 17.039062 7.652343 17.066406 17.066406zm0 0" fill="#cad9fc"/><path d="m477.867188 59.734375v230.398437c-.027344 9.414063-7.652344 17.039063-17.066407 17.066407h-17.066406c-23.5625-.007813-42.660156-19.105469-42.667969-42.664063v-153.601562l59.734375-68.265625c9.414063.027343 17.039063 7.652343 17.066407 17.066406zm0 0" fill="#e8edfc"/><path d="m68.265625 8.535156h170.667969c9.425781 0 17.066406 7.640625 17.066406 17.066406v59.730469c0 14.140625-11.460938 25.601563-25.601562 25.601563h-153.597657c-14.140625 0-25.601562-11.460938-25.601562-25.601563v-59.730469c0-9.425781 7.640625-17.066406 17.066406-17.066406zm0 0" fill="#e8edfc"/><path d="m460.800781 25.601562v59.730469c.007813 6.792969-2.6875 13.308594-7.488281 18.113281-4.804688 4.804688-11.320312 7.496094-18.113281 7.488282h-153.597657c-6.792968.007812-13.3125-2.683594-18.113281-7.488282-4.804687-4.804687-7.496093-11.320312-7.488281-18.113281v-59.730469c.027344-9.414062 7.652344-17.039062 17.066406-17.066406h170.667969c9.414063.027344 17.039063 7.652344 17.066406 17.066406zm0 0" fill="#cad9fc"/><path d="m435.199219 25.601562v59.730469c.011719 6.792969-2.683594 13.308594-7.488281 18.113281-4.800782 4.804688-11.320313 7.496094-18.109376 7.488282h-128c-6.792968.007812-13.3125-2.683594-18.113281-7.488282-4.804687-4.804687-7.496093-11.320312-7.488281-18.113281v-59.730469c.027344-9.414062 7.652344-17.039062 17.066406-17.066406h145.066406c9.414063.027344 17.039063 7.652344 17.066407 17.066406zm0 0" fill="#e8edfc"/><path d="m25.601562 307.199219h25.597657c-9.414063-.027344-17.039063-7.652344-17.066407-17.066407v-230.398437c.027344-9.414063 7.652344-17.039063 17.066407-17.066406h-25.597657c-9.414062.027343-17.039062 7.652343-17.066406 17.066406v230.398437c.027344 9.414063 7.652344 17.039063 17.066406 17.066407zm0 0" fill="#fff"/><path d="m76.800781 25.601562c0-9.425781 7.640625-17.066406 17.066407-17.066406h-25.601563c-9.425781 0-17.066406 7.640625-17.066406 17.066406v17.066407h25.601562zm0 0" fill="#fff"/><path d="m93.867188 460.800781h25.597656c-14.136719 0-25.597656-11.460937-25.597656-25.601562v-128h-25.601563v128c0 14.140625 11.460937 25.601562 25.601563 25.601562zm0 0" fill="#fff"/><path d="m230.398438 469.332031h-136.53125c-18.84375-.019531-34.113282-15.289062-34.132813-34.132812v-128c0-4.710938 3.820313-8.53125 8.53125-8.53125 4.714844 0 8.535156 3.820312 8.535156 8.53125v128c.007813 9.421875 7.644531 17.058593 17.066407 17.066406h136.53125c9.421874-.007813 17.058593-7.644531 17.066406-17.066406v-366.933594c0-4.710937 3.824218-8.53125 8.535156-8.53125s8.535156 3.820313 8.535156 8.53125v366.933594c-.023437 18.84375-15.292968 34.113281-34.136718 34.132812zm0 0" fill="#428dff"/><path d="m17.066406 68.265625v196.269531h-17.066406v-196.269531zm0 0" fill="#fff"/><path d="m8.535156 110.933594c4.707032-.015625 8.519532-3.828125 8.53125-8.535156v-34.132813h-17.066406v34.132813c.0117188 4.707031 3.824219 8.519531 8.535156 8.535156zm0 0" fill="#428dff"/><path d="m0 264.535156h17.066406v-93.867187c0-4.714844-3.820312-8.535157-8.53125-8.535157-4.714844 0-8.535156 3.820313-8.535156 8.535157zm0 0" fill="#428dff"/><path d="m17.066406 136.535156c-.035156-2.261718-.917968-4.425781-2.472656-6.058594l-1.28125-1.027343c-.476562-.320313-.992188-.578125-1.535156-.765625-.484375-.246094-1.003906-.421875-1.539063-.511719-.5625-.097656-1.132812-.152344-1.703125-.171875-2.261718.03125-4.425781.914062-6.058594 2.476562-3.222656 3.394532-3.222656 8.71875 0 12.117188.8125.769531 1.769532 1.378906 2.8125 1.789062 1.027344.4375 2.128907.671876 3.246094.683594 2.257813-.035156 4.417969-.917968 6.058594-2.472656 1.554688-1.640625 2.4375-3.800781 2.472656-6.058594zm0 0" fill="#428dff"/><path d="m17.066406 59.734375v230.398437h-17.066406v-230.398437zm0 0" fill="#fff"/><g fill="#428dff"><path d="m8.535156 102.398438c4.707032-.011719 8.519532-3.824219 8.53125-8.53125v-34.132813h-17.066406v34.132813c.0117188 4.707031 3.824219 8.519531 8.535156 8.53125zm0 0"/><path d="m0 290.132812h17.066406v-128c0-4.710937-3.820312-8.53125-8.53125-8.53125-4.714844 0-8.535156 3.820313-8.535156 8.53125zm0 0"/><path d="m17.066406 128c-.035156-2.257812-.917968-4.421875-2.472656-6.058594l-1.28125-1.023437c-.476562-.324219-.992188-.582031-1.535156-.769531-.484375-.246094-1.003906-.417969-1.539063-.511719-.5625-.09375-1.132812-.152344-1.703125-.171875-2.261718.035156-4.425781.917968-6.058594 2.476562-3.222656 3.398438-3.222656 8.71875 0 12.117188.8125.769531 1.769532 1.378906 2.8125 1.792968 1.027344.4375 2.128907.667969 3.246094.683594 2.257813-.035156 4.417969-.917968 6.058594-2.476562 1.554688-1.636719 2.4375-3.800782 2.472656-6.058594zm0 0"/><path d="m409.601562 298.667969h-128c-18.84375-.023438-34.113281-15.292969-34.136718-34.132813v-196.269531c0-4.710937 3.824218-8.53125 8.535156-8.53125s8.535156 3.820313 8.535156 8.53125v196.269531c.007813 9.421875 7.644532 17.054688 17.066406 17.066406h128c4.710938 0 8.53125 3.820313 8.53125 8.53125 0 4.714844-3.820312 8.535157-8.53125 8.535157zm0 0"/><path d="m8.535156 68.265625c-4.714844 0-8.535156-3.820313-8.535156-8.53125.015625-14.132813 11.46875-25.585937 25.601562-25.601563h25.597657c4.714843 0 8.535156 3.820313 8.535156 8.535157 0 4.710937-3.820313 8.53125-8.535156 8.53125h-25.597657c-4.710937.007812-8.527343 3.824219-8.535156 8.535156 0 4.710937-3.820312 8.53125-8.53125 8.53125zm0 0"/><path d="m68.265625 315.734375h-42.664063c-14.132812-.015625-25.585937-11.46875-25.601562-25.601563 0-4.710937 3.820312-8.53125 8.535156-8.53125 4.710938 0 8.53125 3.820313 8.53125 8.53125.007813 4.710938 3.824219 8.527344 8.535156 8.535157h42.664063c18.84375-.023438 34.113281-15.292969 34.132813-34.132813v-153.601562c0-4.714844 3.820312-8.535156 8.535156-8.535156 4.710937 0 8.53125 3.820312 8.53125 8.535156v153.601562c-.027344 28.261719-22.933594 51.167969-51.199219 51.199219zm0 0"/><path d="m486.398438 315.734375h-42.664063c-28.265625-.03125-51.171875-22.9375-51.199219-51.199219v-153.601562c0-4.714844 3.820313-8.535156 8.53125-8.535156 4.714844 0 8.535156 3.820312 8.535156 8.535156v153.601562c.019532 18.839844 15.289063 34.109375 34.132813 34.132813h42.664063c4.710937-.007813 8.527343-3.824219 8.535156-8.535157v-230.398437c-.007813-4.710937-3.824219-8.527344-8.535156-8.535156h-25.597657c-4.714843 0-8.535156-3.820313-8.535156-8.53125 0-4.714844 3.820313-8.535157 8.535156-8.535157h25.597657c14.132812.015626 25.585937 11.46875 25.601562 25.601563v230.398437c-.015625 14.132813-11.46875 25.585938-25.601562 25.601563zm0 0"/><path d="m230.398438 119.464844h-153.597657c-18.84375-.019532-34.113281-15.289063-34.132812-34.132813v-59.730469c.015625-14.132812 11.464843-25.585937 25.597656-25.601562h170.667969c14.132812.015625 25.585937 11.46875 25.601562 25.601562v59.730469c-.023437 18.84375-15.292968 34.113281-34.136718 34.132813zm-162.132813-102.398438c-4.710937.007813-8.527344 3.824219-8.53125 8.535156v59.730469c.007813 9.421875 7.644531 17.058594 17.066406 17.066407h153.597657c9.421874-.007813 17.058593-7.644532 17.066406-17.066407v-59.730469c-.003906-4.710937-3.820313-8.527343-8.53125-8.535156zm0 0"/><path d="m435.199219 119.464844h-153.597657c-18.84375-.019532-34.113281-15.289063-34.136718-34.132813v-59.730469c.015625-14.132812 11.46875-25.585937 25.601562-25.601562h170.667969c14.132813.015625 25.582031 11.46875 25.597656 25.601562v59.730469c-.019531 18.84375-15.289062 34.113281-34.132812 34.132813zm-162.132813-102.398438c-4.710937.007813-8.527344 3.824219-8.53125 8.535156v59.730469c.007813 9.421875 7.644532 17.058594 17.066406 17.066407h153.597657c9.421875-.007813 17.058593-7.644532 17.066406-17.066407v-59.730469c-.003906-4.710937-3.820313-8.527343-8.53125-8.535156zm0 0"/><path d="m42.667969 281.601562c-4.714844 0-8.535157-3.820312-8.535157-8.535156v-8.53125c0-4.714844 3.820313-8.535156 8.535157-8.535156 4.710937 0 8.53125 3.820312 8.53125 8.535156v8.53125c0 4.714844-3.820313 8.535156-8.53125 8.535156zm0 0"/><path d="m42.667969 238.933594c-4.714844 0-8.535157-3.820313-8.535157-8.535156v-76.796876c0-4.714843 3.820313-8.535156 8.535157-8.535156 4.710937 0 8.53125 3.820313 8.53125 8.535156v76.796876c0 4.714843-3.820313 8.535156-8.53125 8.535156zm0 0"/></g></svg>