<svg id="Layer_1" enable-background="new 0 0 512 512" height="512" viewBox="0 0 512 512" width="512" xmlns="http://www.w3.org/2000/svg"><g><g><path d="m242.103 277.985h-161.206c-7.675 0-13.897-6.222-13.897-13.897v-139.897c0-22.988 18.702-41.691 41.691-41.691h105.618c22.989 0 41.691 18.703 41.691 41.691v139.897c0 7.675-6.222 13.897-13.897 13.897z" fill="#4793ff"/></g><g><path d="m431.103 277.985h-161.206c-7.675 0-13.897-6.222-13.897-13.897v-139.897c0-22.989 18.702-41.691 41.691-41.691h105.618c22.989 0 41.691 18.703 41.691 41.691v139.897c0 7.675-6.222 13.897-13.897 13.897z" fill="#525cdd"/></g><g><path d="m95 429.5h-50c-8.284 0-15-6.716-15-15v-100c0-8.284 6.716-15 15-15h80c4.741 0 9.204 2.242 12.034 6.046s3.695 8.723 2.333 13.264l-30 100c-1.903 6.345-7.743 10.69-14.367 10.69z" fill="#fdbf00"/></g><g><path d="m467 429.5h-50c-6.624 0-12.464-4.345-14.367-10.69l-30-100c-1.362-4.542-.497-9.46 2.333-13.264s7.293-6.046 12.034-6.046h80c8.284 0 15 6.716 15 15v100c0 8.284-6.716 15-15 15z" fill="#ff8856"/></g><g><path d="m482 369.5h-452c-16.542 0-30-13.458-30-30v-137c0-16.542 13.458-30 30-30h37c16.542 0 30 13.458 30 30v61h318v-61c0-16.542 13.458-30 30-30h37c16.542 0 30 13.458 30 30v137c0 16.542-13.458 30-30 30z" fill="#7dd5f4"/></g><path d="m482 172.5h-37c-16.542 0-30 13.458-30 30v61h-159v106h226c16.542 0 30-13.458 30-30v-137c0-16.542-13.458-30-30-30z" fill="#4793ff"/></g></svg>