<svg viewBox="0 0 512 512" xmlns="http://www.w3.org/2000/svg" xmlns:xlink="http://www.w3.org/1999/xlink"><linearGradient id="a" gradientTransform="matrix(1 0 0 -1 0 -14274)" gradientUnits="userSpaceOnUse" x1="0" x2="512" y1="-14530" y2="-14530"><stop offset="0" stop-color="#31d8ff"/><stop offset="1" stop-color="#ff80ff"/></linearGradient><path d="m512 256c0 141.386719-114.613281 256-256 256s-256-114.613281-256-256 114.613281-256 256-256 256 114.613281 256 256zm0 0" fill="url(#a)"/><path d="m403.683594 220.546875v-28.691406c0-35.722657-29.050782-64.789063-64.757813-64.789063h-165.851562c-35.707031 0-64.757813 29.066406-64.757813 64.789063v28.691406c-21.558594 6.46875-37.316406 26.492187-37.316406 50.140625v78.828125c0 8.285156 6.714844 15 15 15h22.347656c.308594 8.011719 6.882813 14.417969 14.96875 14.417969 8.085938 0 14.660156-6.40625 14.96875-14.417969h235.425782c.308593 8.011719 6.882812 14.417969 14.96875 14.417969 8.089843 0 14.664062-6.40625 14.972656-14.417969h22.347656c8.285156 0 15-6.714844 15-15v-78.828125c0-23.648438-15.757812-43.671875-37.316406-50.140625zm-265.367188-28.691406c0-19.183594 15.59375-34.789063 34.757813-34.789063h165.851562c19.164063 0 34.757813 15.605469 34.757813 34.789063v28.679687c-.152344.046875-.304688.097656-.457032.144532-.230468.074218-.460937.148437-.691406.222656-.441406.144531-.878906.292968-1.3125.449218-.214844.074219-.429687.148438-.644531.226563-.5625.210937-1.125.429687-1.679687.65625-13.015626 5.351563-23.589844 15.984375-28.808594 29.058594-.25.625-.484375 1.257812-.710938 1.890625-.070312.191406-.132812.382812-.195312.574218-.160156.460938-.3125.917969-.453125 1.382813-.074219.226563-.140625.453125-.207031.679687-.136719.457032-.265626.917969-.390626 1.382813-.054687.207031-.113281.414063-.164062.625-.167969.664063-.328125 1.332031-.472656 2.007813h-162.992188c-2.75-13.015626-10.566406-24.589844-21.453125-32.1875-3.097656-2.164063-6.453125-3.976563-9.949219-5.414063-.554687-.226563-1.117187-.445313-1.679687-.65625-.214844-.078125-.429687-.152344-.644531-.226563-.433594-.15625-.871094-.304687-1.3125-.449218-.230469-.074219-.460938-.148438-.691406-.222656-.152344-.046876-.304688-.097657-.457032-.144532zm272.683594 142.660156h-310v-63.832031c0-12.316406 10.011719-22.339844 22.316406-22.339844 12.304688 0 22.316406 10.023438 22.316406 22.339844v4.152344c0 8.28125 6.714844 15 15 15h190.730469c8.285157 0 15-6.71875 15-15v-4.152344c0-12.316406 10.011719-22.339844 22.316407-22.339844 12.304687 0 22.320312 10.023438 22.320312 22.34375zm0 0" fill="#fff"/></svg>